solid 
 facet normal  9.987278e-01  5.042633e-02  0.000000e+00
   outer loop
     vertex  4.200000e-01 -1.028703e-16  1.200000e+00
     vertex  4.200000e-01 -1.028703e-16  0.000000e+00
     vertex  4.178640e-01  4.230423e-02  0.000000e+00
   endloop
 endfacet
 facet normal  9.885695e-01  1.507661e-01 -9.334182e-05
   outer loop
     vertex  4.176206e-01  4.464326e-02  1.200000e+00
     vertex  4.178640e-01  4.230423e-02  0.000000e+00
     vertex  4.114779e-01  8.417817e-02  0.000000e+00
   endloop
 endfacet
 facet normal  9.985827e-01  5.322217e-02  9.882168e-05
   outer loop
     vertex  4.176206e-01  4.464326e-02  1.200000e+00
     vertex  4.200000e-01 -1.028703e-16  1.200000e+00
     vertex  4.178640e-01  4.230423e-02  0.000000e+00
   endloop
 endfacet
 facet normal  9.683561e-01  2.495724e-01 -1.757218e-04
   outer loop
     vertex  4.105094e-01  8.878070e-02  1.200000e+00
     vertex  4.114779e-01  8.417817e-02  0.000000e+00
     vertex  4.009065e-01  1.251959e-01  0.000000e+00
   endloop
 endfacet
 facet normal  9.872683e-01  1.590635e-01  1.866829e-04
   outer loop
     vertex  4.105094e-01  8.878070e-02  1.200000e+00
     vertex  4.176206e-01  4.464326e-02  1.200000e+00
     vertex  4.114779e-01  8.417817e-02  0.000000e+00
   endloop
 endfacet
 facet normal  9.647678e-01  2.631026e-01  2.635809e-04
   outer loop
     vertex  3.987470e-01  1.319122e-01  1.200000e+00
     vertex  4.105094e-01  8.878070e-02  1.200000e+00
     vertex  4.009065e-01  1.251959e-01  0.000000e+00
   endloop
 endfacet
 facet normal  9.382934e-01  3.458402e-01 -2.471373e-04
   outer loop
     vertex  3.987470e-01  1.319122e-01  1.200000e+00
     vertex  4.009065e-01  1.251959e-01  0.000000e+00
     vertex  3.862573e-01  1.649403e-01  0.000000e+00
   endloop
 endfacet
 facet normal  9.313361e-01  3.641606e-01  3.295133e-04
   outer loop
     vertex  3.824666e-01  1.735491e-01  1.200000e+00
     vertex  3.987470e-01  1.319122e-01  1.200000e+00
     vertex  3.862573e-01  1.649403e-01  0.000000e+00
   endloop
 endfacet
 facet normal  8.986871e-01  4.385903e-01 -3.075860e-04
   outer loop
     vertex  3.824666e-01  1.735491e-01  1.200000e+00
     vertex  3.862573e-01  1.649403e-01  0.000000e+00
     vertex  3.676795e-01  2.030069e-01  0.000000e+00
   endloop
 endfacet
 facet normal  8.873520e-01  4.610925e-01  3.844780e-04
   outer loop
     vertex  3.618527e-01  2.132196e-01  1.200000e+00
     vertex  3.824666e-01  1.735491e-01  1.200000e+00
     vertex  3.676795e-01  2.030069e-01  0.000000e+00
   endloop
 endfacet
 facet normal  8.499399e-01  5.268795e-01 -3.570662e-04
   outer loop
     vertex  3.618527e-01  2.132196e-01  1.200000e+00
     vertex  3.676795e-01  2.030069e-01  0.000000e+00
     vertex  3.453618e-01  2.390088e-01  0.000000e+00
   endloop
 endfacet
 facet normal  8.333138e-01  5.528000e-01  4.284733e-04
   outer loop
     vertex  3.371389e-01  2.504743e-01  1.200000e+00
     vertex  3.618527e-01  2.132196e-01  1.200000e+00
     vertex  3.453618e-01  2.390088e-01  0.000000e+00
   endloop
 endfacet
 facet normal  7.925478e-01  6.098096e-01 -3.955763e-04
   outer loop
     vertex  3.371389e-01  2.504743e-01  1.200000e+00
     vertex  3.453618e-01  2.390088e-01  0.000000e+00
     vertex  3.195314e-01  2.725796e-01  0.000000e+00
   endloop
 endfacet
 facet normal  7.698339e-01  6.382441e-01  4.614978e-04
   outer loop
     vertex  3.086051e-01  2.848910e-01  1.200000e+00
     vertex  3.371389e-01  2.504743e-01  1.200000e+00
     vertex  3.195314e-01  2.725796e-01  0.000000e+00
   endloop
 endfacet
 facet normal  7.270945e-01  6.865372e-01 -4.231150e-04
   outer loop
     vertex  3.086051e-01  2.848910e-01  1.200000e+00
     vertex  3.195314e-01  2.725796e-01  0.000000e+00
     vertex  2.904510e-01  3.033780e-01  0.000000e+00
   endloop
 endfacet
 facet normal  6.976314e-01  7.164567e-01  4.835505e-04
   outer loop
     vertex  2.765748e-01  3.160797e-01  1.200000e+00
     vertex  3.086051e-01  2.848910e-01  1.200000e+00
     vertex  2.904510e-01  3.033780e-01  0.000000e+00
   endloop
 endfacet
 facet normal  6.542458e-01  7.562819e-01 -4.396815e-04
   outer loop
     vertex  2.765748e-01  3.160797e-01  1.200000e+00
     vertex  2.904510e-01  3.033780e-01  0.000000e+00
     vertex  2.584163e-01  3.310906e-01  0.000000e+00
   endloop
 endfacet
 facet normal  6.175245e-01  7.865515e-01  4.946307e-04
   outer loop
     vertex  2.414107e-01  3.436872e-01  1.200000e+00
     vertex  2.765748e-01  3.160797e-01  1.200000e+00
     vertex  2.584163e-01  3.310906e-01  0.000000e+00
   endloop
 endfacet
 facet normal  5.747425e-01  8.183342e-01 -4.452752e-04
   outer loop
     vertex  2.414107e-01  3.436872e-01  1.200000e+00
     vertex  2.584163e-01  3.310906e-01  0.000000e+00
     vertex  2.237532e-01  3.554356e-01  0.000000e+00
   endloop
 endfacet
 facet normal  5.304208e-01  8.477343e-01  4.947380e-04
   outer loop
     vertex  2.035114e-01  3.674005e-01  1.200000e+00
     vertex  2.414107e-01  3.436872e-01  1.200000e+00
     vertex  2.237532e-01  3.554356e-01  0.000000e+00
   endloop
 endfacet
 facet normal  4.893934e-01  8.720630e-01 -4.398961e-04
   outer loop
     vertex  2.035114e-01  3.674005e-01  1.200000e+00
     vertex  2.237532e-01  3.554356e-01  0.000000e+00
     vertex  1.868143e-01  3.761654e-01  0.000000e+00
   endloop
 endfacet
 facet normal  3.276097e-01  9.448128e-01 -8.140258e-04
   outer loop
     vertex  1.312507e-01  3.989652e-01  1.125175e-01
     vertex  1.324379e-01  3.985727e-01  1.347335e-01
     vertex  1.479752e-01  3.930691e-01  0.000000e+00
   endloop
 endfacet
 facet normal  3.169808e-01  9.484284e-01 -2.583357e-03
   outer loop
     vertex  1.263074e-01  4.005577e-01  9.060657e-02
     vertex  1.312507e-01  3.989652e-01  1.125175e-01
     vertex  1.479752e-01  3.930691e-01  0.000000e+00
   endloop
 endfacet
 facet normal  3.046755e-01  9.524382e-01 -5.857466e-03
   outer loop
     vertex  1.076310e-01  4.059748e-01  0.000000e+00
     vertex  1.263074e-01  4.005577e-01  9.060657e-02
     vertex  1.479752e-01  3.930691e-01  0.000000e+00
   endloop
 endfacet
 facet normal  3.021058e-01  9.532598e-01 -5.278651e-03
   outer loop
     vertex  1.076310e-01  4.059748e-01  0.000000e+00
     vertex  1.176411e-01  4.031880e-01  6.962603e-02
     vertex  1.263074e-01  4.005577e-01  9.060657e-02
   endloop
 endfacet
 facet normal  4.373073e-01  8.993120e-01  4.838724e-04
   outer loop
     vertex  1.633062e-01  3.869510e-01  1.200000e+00
     vertex  2.035114e-01  3.674005e-01  1.200000e+00
     vertex  1.868143e-01  3.761654e-01  0.000000e+00
   endloop
 endfacet
 facet normal  3.376277e-01  9.412796e-01  4.855716e-04
   outer loop
     vertex  1.633062e-01  3.869510e-01  1.200000e+00
     vertex  1.479752e-01  3.930691e-01  0.000000e+00
     vertex  1.324379e-01  3.985727e-01  1.347335e-01
   endloop
 endfacet
 facet normal  3.990666e-01  9.169218e-01 -4.235442e-04
   outer loop
     vertex  1.633062e-01  3.869510e-01  1.200000e+00
     vertex  1.868143e-01  3.761654e-01  0.000000e+00
     vertex  1.479752e-01  3.930691e-01  0.000000e+00
   endloop
 endfacet
 facet normal  3.195401e-01  9.475721e-01  1.078347e-03
   outer loop
     vertex  1.633062e-01  3.869510e-01  1.200000e+00
     vertex  1.324379e-01  3.985727e-01  1.347335e-01
     vertex  1.294031e-01  3.995683e-01  1.591380e-01
   endloop
 endfacet
 facet normal  2.338008e-01  9.722841e-01 -9.217439e-04
   outer loop
     vertex  9.010675e-02  4.102204e-01  3.331728e-02
     vertex  1.054414e-01  4.065490e-01  5.029010e-02
     vertex  1.076310e-01  4.059748e-01  0.000000e+00
   endloop
 endfacet
 facet normal  2.071704e-01  9.781792e-01 -1.568003e-02
   outer loop
     vertex  6.619210e-02  4.147513e-01  0.000000e+00
     vertex  9.010675e-02  4.102204e-01  3.331728e-02
     vertex  1.076310e-01  4.059748e-01  0.000000e+00
   endloop
 endfacet
 facet normal  1.964015e-01  9.804938e-01 -7.635515e-03
   outer loop
     vertex  6.619210e-02  4.147513e-01  0.000000e+00
     vertex  7.008483e-02  4.141112e-01  1.794250e-02
     vertex  9.010675e-02  4.102204e-01  3.331728e-02
   endloop
 endfacet
 facet normal  3.392388e-01  9.407002e-01  3.534171e-04
   outer loop
     vertex  1.212506e-01  4.021173e-01  1.200000e+00
     vertex  1.633062e-01  3.869510e-01  1.200000e+00
     vertex  1.294031e-01  3.995683e-01  1.591380e-01
   endloop
 endfacet
 facet normal  2.991723e-01  9.541991e-01  6.539368e-06
   outer loop
     vertex  1.212506e-01  4.021173e-01  1.200000e+00
     vertex  1.294031e-01  3.995683e-01  1.591380e-01
     vertex  1.218769e-01  4.019279e-01  1.825983e-01
   endloop
 endfacet
 facet normal  2.760728e-01  9.611367e-01 -8.971731e-06
   outer loop
     vertex  1.212506e-01  4.021173e-01  1.200000e+00
     vertex  1.218769e-01  4.019279e-01  1.825983e-01
     vertex  1.100100e-01  4.053367e-01  2.044034e-01
   endloop
 endfacet
 facet normal  2.434963e-01  9.699017e-01  3.871691e-04
   outer loop
     vertex  1.212506e-01  4.021173e-01  1.200000e+00
     vertex  1.100100e-01  4.053367e-01  2.044034e-01
     vertex  9.411606e-02  4.093192e-01  2.237436e-01
   endloop
 endfacet
 facet normal  1.072818e-01  9.912211e-01 -7.727445e-02
   outer loop
     vertex  2.407993e-02  4.193091e-01  0.000000e+00
     vertex  4.787363e-02  4.172626e-01  6.782347e-03
     vertex  6.619210e-02  4.147513e-01  0.000000e+00
   endloop
 endfacet
 facet normal  2.373267e-01  9.714297e-01  5.699243e-04
   outer loop
     vertex  7.782126e-02  4.127273e-01  1.200000e+00
     vertex  1.212506e-01  4.021173e-01  1.200000e+00
     vertex  9.411606e-02  4.093192e-01  2.237436e-01
   endloop
 endfacet
 facet normal  2.010483e-01  9.795813e-01 -6.405865e-05
   outer loop
     vertex  7.782126e-02  4.127273e-01  1.200000e+00
     vertex  9.411606e-02  4.093192e-01  2.237436e-01
     vertex  7.476141e-02  4.132925e-01  2.397985e-01
   endloop
 endfacet
 facet normal  1.546284e-01  9.879727e-01  8.880625e-05
   outer loop
     vertex  7.782126e-02  4.127273e-01  1.200000e+00
     vertex  7.476141e-02  4.132925e-01  2.397985e-01
     vertex  5.504864e-02  4.163768e-01  2.508712e-01
   endloop
 endfacet
 facet normal  1.327255e-01  9.911526e-01  6.265542e-04
   outer loop
     vertex  3.351016e-02  4.186610e-01  1.200000e+00
     vertex  7.782126e-02  4.127273e-01  1.200000e+00
     vertex  5.504864e-02  4.163768e-01  2.508712e-01
   endloop
 endfacet
 facet normal  1.058750e-01  9.943794e-01  9.474040e-06
   outer loop
     vertex  3.351016e-02  4.186610e-01  1.200000e+00
     vertex  5.504864e-02  4.163768e-01  2.508712e-01
     vertex  3.385468e-02  4.186333e-01  2.584080e-01
   endloop
 endfacet
 facet normal  5.438901e-02  9.985198e-01 -9.486037e-06
   outer loop
     vertex  3.351016e-02  4.186610e-01  1.200000e+00
     vertex  3.385468e-02  4.186333e-01  2.584080e-01
     vertex  1.181857e-02  4.198337e-01  2.622557e-01
   endloop
 endfacet
 facet normal -1.334993e-01  9.910321e-01 -5.772164e-03
   outer loop
     vertex -6.822382e-02  4.144219e-01  0.000000e+00
     vertex -6.486931e-02  4.149602e-01  1.483946e-02
     vertex -4.504830e-02  4.175771e-01  5.718590e-03
   endloop
 endfacet
 facet normal -1.094664e-01  9.887523e-01 -1.019114e-01
   outer loop
     vertex -6.822382e-02  4.144219e-01  0.000000e+00
     vertex -4.504830e-02  4.175771e-01  5.718590e-03
     vertex -2.407993e-02  4.193091e-01  0.000000e+00
   endloop
 endfacet
 facet normal  2.662052e-02  9.996454e-01  6.342532e-04
   outer loop
     vertex -1.118062e-02  4.198512e-01  1.200000e+00
     vertex  3.351016e-02  4.186610e-01  1.200000e+00
     vertex  1.181857e-02  4.198337e-01  2.622557e-01
   endloop
 endfacet
 facet normal  1.595889e-03  9.999987e-01  2.049077e-05
   outer loop
     vertex -1.118062e-02  4.198512e-01  1.200000e+00
     vertex  1.181857e-02  4.198337e-01  2.622557e-01
     vertex -1.047866e-02  4.198692e-01  2.623682e-01
   endloop
 endfacet
 facet normal -5.403759e-02  9.985389e-01 -2.118747e-05
   outer loop
     vertex -1.118062e-02  4.198512e-01  1.200000e+00
     vertex -1.047866e-02  4.198692e-01  2.623682e-01
     vertex -3.489749e-02  4.185477e-01  2.581294e-01
   endloop
 endfacet
 facet normal -2.143420e-01  9.765696e-01 -1.921553e-02
   outer loop
     vertex -1.116048e-01  4.049004e-01  0.000000e+00
     vertex -8.554433e-02  4.111960e-01  2.925852e-02
     vertex -6.822382e-02  4.144219e-01  0.000000e+00
   endloop
 endfacet
 facet normal -2.295297e-01  9.732889e-01 -4.981915e-03
   outer loop
     vertex -1.116048e-01  4.049004e-01  0.000000e+00
     vertex -1.031382e-01  4.071394e-01  4.733947e-02
     vertex -8.554433e-02  4.111960e-01  2.925852e-02
   endloop
 endfacet
 facet normal -1.108792e-01  9.938339e-01 -6.580184e-05
   outer loop
     vertex -5.574472e-02  4.162842e-01  1.200000e+00
     vertex -3.489749e-02  4.185477e-01  2.581294e-01
     vertex -5.822472e-02  4.159446e-01  2.493773e-01
   endloop
 endfacet
 facet normal -1.642511e-01  9.864186e-01  7.608491e-05
   outer loop
     vertex -5.574472e-02  4.162842e-01  1.200000e+00
     vertex -5.822472e-02  4.159446e-01  2.493773e-01
     vertex -7.966231e-02  4.123759e-01  2.362998e-01
   endloop
 endfacet
 facet normal -7.978609e-02  9.968118e-01  6.295653e-04
   outer loop
     vertex -5.574472e-02  4.162842e-01  1.200000e+00
     vertex -1.118062e-02  4.198512e-01  1.200000e+00
     vertex -3.489749e-02  4.185477e-01  2.581294e-01
   endloop
 endfacet
 facet normal -2.938707e-01  9.558434e-01 -1.843591e-03
   outer loop
     vertex -1.264986e-01  4.004973e-01  9.121604e-02
     vertex -1.169368e-01  4.033928e-01  6.828198e-02
     vertex -1.116048e-01  4.049004e-01  0.000000e+00
   endloop
 endfacet
 facet normal -3.371251e-01  9.414597e-01 -5.870175e-04
   outer loop
     vertex -1.537378e-01  3.908512e-01  0.000000e+00
     vertex -1.321728e-01  3.986607e-01  1.399808e-01
     vertex -1.316107e-01  3.988466e-01  1.153460e-01
   endloop
 endfacet
 facet normal -3.228920e-01  9.464287e-01 -3.661830e-03
   outer loop
     vertex -1.537378e-01  3.908512e-01  0.000000e+00
     vertex -1.316107e-01  3.988466e-01  1.153460e-01
     vertex -1.264986e-01  4.004973e-01  9.121604e-02
   endloop
 endfacet
 facet normal -3.163211e-01  9.486341e-01 -5.857293e-03
   outer loop
     vertex -1.537378e-01  3.908512e-01  0.000000e+00
     vertex -1.264986e-01  4.004973e-01  9.121604e-02
     vertex -1.116048e-01  4.049004e-01  0.000000e+00
   endloop
 endfacet
 facet normal -1.852887e-01  9.826839e-01  6.133513e-04
   outer loop
     vertex -9.967721e-02  4.080006e-01  1.200000e+00
     vertex -5.574472e-02  4.162842e-01  1.200000e+00
     vertex -7.966231e-02  4.123759e-01  2.362998e-01
   endloop
 endfacet
 facet normal -2.099832e-01  9.777050e-01  7.787103e-05
   outer loop
     vertex -9.967721e-02  4.080006e-01  1.200000e+00
     vertex -7.966231e-02  4.123759e-01  2.362998e-01
     vertex -9.663036e-02  4.087329e-01  2.211469e-01
   endloop
 endfacet
 facet normal -2.468797e-01  9.690461e-01 -4.345422e-05
   outer loop
     vertex -9.967721e-02  4.080006e-01  1.200000e+00
     vertex -9.663036e-02  4.087329e-01  2.211469e-01
     vertex -1.107612e-01  4.051320e-01  2.032757e-01
   endloop
 endfacet
 facet normal -2.771425e-01  9.608288e-01  3.167314e-04
   outer loop
     vertex -9.967721e-02  4.080006e-01  1.200000e+00
     vertex -1.107612e-01  4.051320e-01  2.032757e-01
     vertex -1.215618e-01  4.020233e-01  1.833293e-01
   endloop
 endfacet
 facet normal -3.397001e-01  9.405338e-01 -1.386676e-04
   outer loop
     vertex -1.424803e-01  3.950941e-01  1.200000e+00
     vertex -1.321728e-01  3.986607e-01  1.399808e-01
     vertex -1.537378e-01  3.908512e-01  0.000000e+00
   endloop
 endfacet
 facet normal -2.886919e-01  9.574219e-01  5.853703e-04
   outer loop
     vertex -1.424803e-01  3.950941e-01  1.200000e+00
     vertex -9.967721e-02  4.080006e-01  1.200000e+00
     vertex -1.215618e-01  4.020233e-01  1.833293e-01
   endloop
 endfacet
 facet normal -2.989379e-01  9.542725e-01  3.530887e-04
   outer loop
     vertex -1.424803e-01  3.950941e-01  1.200000e+00
     vertex -1.215618e-01  4.020233e-01  1.833293e-01
     vertex -1.287360e-01  3.997838e-01  1.620121e-01
   endloop
 endfacet
 facet normal -3.115856e-01  9.502181e-01  1.672980e-04
   outer loop
     vertex -1.424803e-01  3.950941e-01  1.200000e+00
     vertex -1.287360e-01  3.997838e-01  1.620121e-01
     vertex -1.321728e-01  3.986607e-01  1.399808e-01
   endloop
 endfacet
 facet normal -4.147341e-01  9.099426e-01 -3.806236e-04
   outer loop
     vertex -1.836691e-01  3.777111e-01  1.200000e+00
     vertex -1.537378e-01  3.908512e-01  0.000000e+00
     vertex -1.941516e-01  3.724314e-01  0.000000e+00
   endloop
 endfacet
 facet normal -3.888241e-01  9.213119e-01  3.901385e-04
   outer loop
     vertex -1.836691e-01  3.777111e-01  1.200000e+00
     vertex -1.424803e-01  3.950941e-01  1.200000e+00
     vertex -1.537378e-01  3.908512e-01  0.000000e+00
   endloop
 endfacet
 facet normal -5.085041e-01  8.610595e-01 -3.744373e-04
   outer loop
     vertex -2.227768e-01  3.560485e-01  1.200000e+00
     vertex -1.941516e-01  3.724314e-01  0.000000e+00
     vertex -2.323944e-01  3.498469e-01  0.000000e+00
   endloop
 endfacet
 facet normal -4.845508e-01  8.747630e-01  3.840377e-04
   outer loop
     vertex -2.227768e-01  3.560485e-01  1.200000e+00
     vertex -1.836691e-01  3.777111e-01  1.200000e+00
     vertex -1.941516e-01  3.724314e-01  0.000000e+00
   endloop
 endfacet
 facet normal -5.965878e-01  8.025478e-01 -3.680804e-04
   outer loop
     vertex -2.593603e-01  3.303517e-01  1.200000e+00
     vertex -2.323944e-01  3.498469e-01  0.000000e+00
     vertex -2.680384e-01  3.233503e-01  0.000000e+00
   endloop
 endfacet
 facet normal -5.747874e-01  8.183027e-01  3.777661e-04
   outer loop
     vertex -2.593603e-01  3.303517e-01  1.200000e+00
     vertex -2.227768e-01  3.560485e-01  1.200000e+00
     vertex -2.323944e-01  3.498469e-01  0.000000e+00
   endloop
 endfacet
 facet normal -6.780002e-01  7.350616e-01 -3.615526e-04
   outer loop
     vertex -2.930052e-01  3.009118e-01  1.200000e+00
     vertex -2.680384e-01  3.233503e-01  0.000000e+00
     vertex -3.006852e-01  2.932379e-01  0.000000e+00
   endloop
 endfacet
 facet normal -6.585113e-01  7.525707e-01  3.713237e-04
   outer loop
     vertex -2.930052e-01  3.009118e-01  1.200000e+00
     vertex -2.593603e-01  3.303517e-01  1.200000e+00
     vertex -2.680384e-01  3.233503e-01  0.000000e+00
   endloop
 endfacet
 facet normal -7.518310e-01  6.593558e-01 -3.548540e-04
   outer loop
     vertex -3.233303e-01  2.680626e-01  1.200000e+00
     vertex -3.006852e-01  2.932379e-01  0.000000e+00
     vertex -3.299695e-01  2.598463e-01  0.000000e+00
   endloop
 endfacet
 facet normal -7.347741e-01  6.783118e-01  3.647105e-04
   outer loop
     vertex -3.233303e-01  2.680626e-01  1.200000e+00
     vertex -2.930052e-01  3.009118e-01  1.200000e+00
     vertex -3.006852e-01  2.932379e-01  0.000000e+00
   endloop
 endfacet
 facet normal -8.172545e-01  5.762768e-01 -3.479847e-04
   outer loop
     vertex -3.499918e-01  2.321760e-01  1.200000e+00
     vertex -3.299695e-01  2.598463e-01  0.000000e+00
     vertex -3.555641e-01  2.235491e-01  0.000000e+00
   endloop
 endfacet
 facet normal -8.027116e-01  5.963673e-01  3.579266e-04
   outer loop
     vertex -3.499918e-01  2.321760e-01  1.200000e+00
     vertex -3.233303e-01  2.680626e-01  1.200000e+00
     vertex -3.299695e-01  2.598463e-01  0.000000e+00
   endloop
 endfacet
 facet normal -8.735392e-01  4.867537e-01 -3.409446e-04
   outer loop
     vertex -3.726879e-01  1.936589e-01  1.200000e+00
     vertex -3.555641e-01  2.235491e-01  0.000000e+00
     vertex -3.771825e-01  1.847521e-01  0.000000e+00
   endloop
 endfacet
 facet normal -8.615540e-01  5.076658e-01  3.509719e-04
   outer loop
     vertex -3.726879e-01  1.936589e-01  1.200000e+00
     vertex -3.499918e-01  2.321760e-01  1.200000e+00
     vertex -3.555641e-01  2.235491e-01  0.000000e+00
   endloop
 endfacet
 facet normal -9.200557e-01  3.917875e-01 -3.337337e-04
   outer loop
     vertex -3.911612e-01  1.529474e-01  1.200000e+00
     vertex -3.771825e-01  1.847521e-01  0.000000e+00
     vertex -3.945832e-01  1.438891e-01  0.000000e+00
   endloop
 endfacet
 facet normal -9.106347e-01  4.132122e-01  3.438464e-04
   outer loop
     vertex -3.911612e-01  1.529474e-01  1.200000e+00
     vertex -3.726879e-01  1.936589e-01  1.200000e+00
     vertex -3.771825e-01  1.847521e-01  0.000000e+00
   endloop
 endfacet
 facet normal -9.562838e-01  2.924402e-01 -3.263521e-04
   outer loop
     vertex -4.052025e-01  1.105031e-01  1.200000e+00
     vertex -3.945832e-01  1.438891e-01  0.000000e+00
     vertex -4.075716e-01  1.014171e-01  0.000000e+00
   endloop
 endfacet
 facet normal -9.493976e-01  3.140767e-01  3.365501e-04
   outer loop
     vertex -4.052025e-01  1.105031e-01  1.200000e+00
     vertex -3.911612e-01  1.529474e-01  1.200000e+00
     vertex -3.945832e-01  1.438891e-01  0.000000e+00
   endloop
 endfacet
 facet normal -9.818183e-01  1.898227e-01 -3.187997e-04
   outer loop
     vertex -4.146527e-01  6.680667e-02  1.200000e+00
     vertex -4.075716e-01  1.014171e-01  0.000000e+00
     vertex -4.160023e-01  5.781099e-02  0.000000e+00
   endloop
 endfacet
 facet normal -9.774033e-01  2.113826e-01  3.290831e-04
   outer loop
     vertex -4.146527e-01  6.680667e-02  1.200000e+00
     vertex -4.052025e-01  1.105031e-01  1.200000e+00
     vertex -4.075716e-01  1.014171e-01  0.000000e+00
   endloop
 endfacet
 facet normal -9.963739e-01  8.508261e-02 -3.110765e-04
   outer loop
     vertex -4.194047e-01  2.235331e-02  1.200000e+00
     vertex -4.160023e-01  5.781099e-02  0.000000e+00
     vertex -4.197811e-01  1.355843e-02  0.000000e+00
   endloop
 endfacet
 facet normal -9.943347e-01  1.062935e-01  3.214453e-04
   outer loop
     vertex -4.194047e-01  2.235331e-02  1.200000e+00
     vertex -4.146527e-01  6.680667e-02  1.200000e+00
     vertex -4.160023e-01  5.781099e-02  0.000000e+00
   endloop
 endfacet
 facet normal -9.997876e-01 -2.060895e-02 -3.031826e-04
   outer loop
     vertex -4.194047e-01 -2.235331e-02  1.200000e+00
     vertex -4.197811e-01  1.355843e-02  0.000000e+00
     vertex -4.188658e-01 -3.084574e-02  0.000000e+00
   endloop
 endfacet
 facet normal -1.000000e+00  1.241676e-15  3.136368e-04
   outer loop
     vertex -4.194047e-01 -2.235331e-02  1.200000e+00
     vertex -4.194047e-01  2.235331e-02  1.200000e+00
     vertex -4.197811e-01  1.355843e-02  0.000000e+00
   endloop
 endfacet
 facet normal -9.920213e-01 -1.260700e-01 -2.951179e-04
   outer loop
     vertex -4.146527e-01 -6.680667e-02  1.200000e+00
     vertex -4.188658e-01 -3.084574e-02  0.000000e+00
     vertex -4.132666e-01 -7.490498e-02  0.000000e+00
   endloop
 endfacet
 facet normal -9.943348e-01 -1.062935e-01  3.056575e-04
   outer loop
     vertex -4.146527e-01 -6.680667e-02  1.200000e+00
     vertex -4.194047e-01 -2.235331e-02  1.200000e+00
     vertex -4.188658e-01 -3.084574e-02  0.000000e+00
   endloop
 endfacet
 facet normal -9.731619e-01 -2.301214e-01 -2.868825e-04
   outer loop
     vertex -4.052025e-01 -1.105031e-01  1.200000e+00
     vertex -4.132666e-01 -7.490498e-02  0.000000e+00
     vertex -4.030460e-01 -1.181266e-01  0.000000e+00
   endloop
 endfacet
 facet normal -9.774033e-01 -2.113826e-01  2.975074e-04
   outer loop
     vertex -4.052025e-01 -1.105031e-01  1.200000e+00
     vertex -4.146527e-01 -6.680667e-02  1.200000e+00
     vertex -4.132666e-01 -7.490498e-02  0.000000e+00
   endloop
 endfacet
 facet normal -9.434202e-01 -3.315994e-01 -2.784763e-04
   outer loop
     vertex -3.911612e-01 -1.529474e-01  1.200000e+00
     vertex -4.030460e-01 -1.181266e-01  0.000000e+00
     vertex -3.883185e-01 -1.600273e-01  0.000000e+00
   endloop
 endfacet
 facet normal -9.493976e-01 -3.140767e-01  2.891866e-04
   outer loop
     vertex -3.911612e-01 -1.529474e-01  1.200000e+00
     vertex -4.052025e-01 -1.105031e-01  1.200000e+00
     vertex -4.030460e-01 -1.181266e-01  0.000000e+00
   endloop
 endfacet
 facet normal -9.031289e-01 -4.293694e-01 -2.698994e-04
   outer loop
     vertex -3.726879e-01 -1.936589e-01  1.200000e+00
     vertex -3.883185e-01 -1.600273e-01  0.000000e+00
     vertex -3.692487e-01 -2.001385e-01  0.000000e+00
   endloop
 endfacet
 facet normal -9.106347e-01 -4.132122e-01  2.806951e-04
   outer loop
     vertex -3.726879e-01 -1.936589e-01  1.200000e+00
     vertex -3.911612e-01 -1.529474e-01  1.200000e+00
     vertex -3.883185e-01 -1.600273e-01  0.000000e+00
   endloop
 endfacet
 facet normal -8.527385e-01 -5.223380e-01 -2.611518e-04
   outer loop
     vertex -3.499918e-01 -2.321760e-01  1.200000e+00
     vertex -3.692487e-01 -2.001385e-01  0.000000e+00
     vertex -3.460497e-01 -2.380117e-01  0.000000e+00
   endloop
 endfacet
 facet normal -8.615540e-01 -5.076658e-01  2.720328e-04
   outer loop
     vertex -3.499918e-01 -2.321760e-01  1.200000e+00
     vertex -3.726879e-01 -1.936589e-01  1.200000e+00
     vertex -3.692487e-01 -2.001385e-01  0.000000e+00
   endloop
 endfacet
 facet normal -7.928124e-01 -6.094657e-01 -2.522334e-04
   outer loop
     vertex -3.233303e-01 -2.680626e-01  1.200000e+00
     vertex -3.460497e-01 -2.380117e-01  0.000000e+00
     vertex -3.189812e-01 -2.732234e-01  0.000000e+00
   endloop
 endfacet
 facet normal -8.027116e-01 -5.963673e-01  2.631998e-04
   outer loop
     vertex -3.233303e-01 -2.680626e-01  1.200000e+00
     vertex -3.499918e-01 -2.321760e-01  1.200000e+00
     vertex -3.460497e-01 -2.380117e-01  0.000000e+00
   endloop
 endfacet
 facet normal -7.347741e-01 -6.783118e-01  2.541961e-04
   outer loop
     vertex -2.930052e-01 -3.009118e-01  1.200000e+00
     vertex -3.233303e-01 -2.680626e-01  1.200000e+00
     vertex -3.189812e-01 -2.732234e-01  0.000000e+00
   endloop
 endfacet
 facet normal -7.240209e-01 -6.897780e-01 -2.431443e-04
   outer loop
     vertex -2.930052e-01 -3.009118e-01  1.200000e+00
     vertex -3.189812e-01 -2.732234e-01  0.000000e+00
     vertex -2.883457e-01 -3.053797e-01  0.000000e+00
   endloop
 endfacet
 facet normal -6.585114e-01 -7.525707e-01  2.450216e-04
   outer loop
     vertex -2.593603e-01 -3.303517e-01  1.200000e+00
     vertex -2.930052e-01 -3.009118e-01  1.200000e+00
     vertex -2.883457e-01 -3.053797e-01  0.000000e+00
   endloop
 endfacet
 facet normal -6.471330e-01 -7.623771e-01 -2.338845e-04
   outer loop
     vertex -2.593603e-01 -3.303517e-01  1.200000e+00
     vertex -2.883457e-01 -3.053797e-01  0.000000e+00
     vertex -2.544857e-01 -3.341212e-01  0.000000e+00
   endloop
 endfacet
 facet normal -5.747874e-01 -8.183028e-01  2.356764e-04
   outer loop
     vertex -2.227768e-01 -3.560485e-01  1.200000e+00
     vertex -2.593603e-01 -3.303517e-01  1.200000e+00
     vertex -2.544857e-01 -3.341212e-01  0.000000e+00
   endloop
 endfacet
 facet normal -5.630087e-01 -8.264509e-01 -2.244539e-04
   outer loop
     vertex -2.227768e-01 -3.560485e-01  1.200000e+00
     vertex -2.544857e-01 -3.341212e-01  0.000000e+00
     vertex -2.177801e-01 -3.591265e-01  0.000000e+00
   endloop
 endfacet
 facet normal -4.845509e-01 -8.747631e-01  2.261605e-04
   outer loop
     vertex -1.836691e-01 -3.777111e-01  1.200000e+00
     vertex -2.227768e-01 -3.560485e-01  1.200000e+00
     vertex -2.177801e-01 -3.591265e-01  0.000000e+00
   endloop
 endfacet
 facet normal -4.725886e-01 -8.812831e-01 -2.148527e-04
   outer loop
     vertex -1.836691e-01 -3.777111e-01  1.200000e+00
     vertex -2.177801e-01 -3.591265e-01  0.000000e+00
     vertex -1.786391e-01 -3.801159e-01  0.000000e+00
   endloop
 endfacet
 facet normal -2.790831e-01 -9.602654e-01 -1.730116e-03
   outer loop
     vertex -1.092640e-01 -4.055384e-01  2.649310e-01
     vertex -1.114992e-01 -4.049295e-01  2.875603e-01
     vertex -1.375005e-01 -3.968546e-01  0.000000e+00
   endloop
 endfacet
 facet normal -2.769642e-01 -9.608782e-01 -1.976036e-03
   outer loop
     vertex -9.482440e-02 -4.091556e-01  0.000000e+00
     vertex -1.092640e-01 -4.055384e-01  2.649310e-01
     vertex -1.375005e-01 -3.968546e-01  0.000000e+00
   endloop
 endfacet
 facet normal -2.539729e-01 -9.672111e-01 -6.364712e-04
   outer loop
     vertex -1.024696e-01 -4.073082e-01  2.432497e-01
     vertex -1.092640e-01 -4.055384e-01  2.649310e-01
     vertex -9.482440e-02 -4.091556e-01  0.000000e+00
   endloop
 endfacet
 facet normal -3.888242e-01 -9.213120e-01  2.164739e-04
   outer loop
     vertex -1.424803e-01 -3.950941e-01  1.200000e+00
     vertex -1.836691e-01 -3.777111e-01  1.200000e+00
     vertex -1.786391e-01 -3.801159e-01  0.000000e+00
   endloop
 endfacet
 facet normal -2.982253e-01 -9.544955e-01  1.627613e-04
   outer loop
     vertex -1.424803e-01 -3.950941e-01  1.200000e+00
     vertex -1.375005e-01 -3.968546e-01  0.000000e+00
     vertex -1.114992e-01 -4.049295e-01  2.875603e-01
   endloop
 endfacet
 facet normal -3.768839e-01 -9.262605e-01 -2.050807e-04
   outer loop
     vertex -1.424803e-01 -3.950941e-01  1.200000e+00
     vertex -1.786391e-01 -3.801159e-01  0.000000e+00
     vertex -1.375005e-01 -3.968546e-01  0.000000e+00
   endloop
 endfacet
 facet normal -2.735229e-01 -9.618649e-01  1.080950e-03
   outer loop
     vertex -1.424803e-01 -3.950941e-01  1.200000e+00
     vertex -1.114992e-01 -4.049295e-01  2.875603e-01
     vertex -1.095195e-01 -4.054695e-01  3.080687e-01
   endloop
 endfacet
 facet normal -2.304818e-01 -9.730766e-01  1.463826e-04
   outer loop
     vertex -9.132391e-02 -4.099512e-01  2.233236e-01
     vertex -1.024696e-01 -4.073082e-01  2.432497e-01
     vertex -9.482440e-02 -4.091556e-01  0.000000e+00
   endloop
 endfacet
 facet normal -1.998782e-01 -9.798207e-01 -3.573388e-04
   outer loop
     vertex -7.621583e-02 -4.130268e-01  2.060107e-01
     vertex -9.132391e-02 -4.099512e-01  2.233236e-01
     vertex -9.482440e-02 -4.091556e-01  0.000000e+00
   endloop
 endfacet
 facet normal -1.739477e-01 -9.847509e-01 -2.792230e-03
   outer loop
     vertex -5.108789e-02 -4.168813e-01  0.000000e+00
     vertex -7.621583e-02 -4.130268e-01  2.060107e-01
     vertex -9.482440e-02 -4.091556e-01  0.000000e+00
   endloop
 endfacet
 facet normal -1.603697e-01 -9.870564e-01 -1.092924e-03
   outer loop
     vertex -5.778835e-02 -4.160054e-01  1.921369e-01
     vertex -7.621583e-02 -4.130268e-01  2.060107e-01
     vertex -5.108789e-02 -4.168813e-01  0.000000e+00
   endloop
 endfacet
 facet normal -2.886919e-01 -9.574219e-01  4.687038e-04
   outer loop
     vertex -9.967721e-02 -4.080006e-01  1.200000e+00
     vertex -1.424803e-01 -3.950941e-01  1.200000e+00
     vertex -1.095195e-01 -4.054695e-01  3.080687e-01
   endloop
 endfacet
 facet normal -2.095629e-01 -9.777952e-01  1.415339e-04
   outer loop
     vertex -9.967721e-02 -4.080006e-01  1.200000e+00
     vertex -9.431827e-02 -4.092726e-01  3.467385e-01
     vertex -8.154514e-02 -4.120077e-01  3.634051e-01
   endloop
 endfacet
 facet normal -2.357515e-01 -9.718134e-01 -3.186237e-05
   outer loop
     vertex -9.967721e-02 -4.080006e-01  1.200000e+00
     vertex -1.037504e-01 -4.069838e-01  3.280386e-01
     vertex -9.431827e-02 -4.092726e-01  3.467385e-01
   endloop
 endfacet
 facet normal -2.540927e-01 -9.671799e-01  5.921803e-05
   outer loop
     vertex -9.967721e-02 -4.080006e-01  1.200000e+00
     vertex -1.095195e-01 -4.054695e-01  3.080687e-01
     vertex -1.037504e-01 -4.069838e-01  3.280386e-01
   endloop
 endfacet
 facet normal -1.124964e-01 -9.936519e-01  6.066450e-04
   outer loop
     vertex -3.691451e-02 -4.183746e-01  1.823587e-01
     vertex -5.778835e-02 -4.160054e-01  1.921369e-01
     vertex -5.108789e-02 -4.168813e-01  0.000000e+00
   endloop
 endfacet
 facet normal -6.898669e-02 -9.976136e-01 -2.807484e-03
   outer loop
     vertex -6.780101e-03 -4.199453e-01  0.000000e+00
     vertex -3.691451e-02 -4.183746e-01  1.823587e-01
     vertex -5.108789e-02 -4.168813e-01  0.000000e+00
   endloop
 endfacet
 facet normal -6.686236e-02 -9.977592e-01 -2.455189e-03
   outer loop
     vertex -6.780101e-03 -4.199453e-01  0.000000e+00
     vertex -1.871073e-02 -4.195830e-01  1.776915e-01
     vertex -3.691451e-02 -4.183746e-01  1.823587e-01
   endloop
 endfacet
 facet normal -7.908795e-02 -9.968675e-01  5.817525e-04
   outer loop
     vertex -5.574472e-02 -4.162842e-01  1.200000e+00
     vertex -4.400753e-02 -4.176881e-01  3.899961e-01
     vertex -2.225021e-02 -4.194102e-01  3.968621e-01
   endloop
 endfacet
 facet normal -1.286236e-01 -9.916935e-01 -1.450005e-04
   outer loop
     vertex -5.574472e-02 -4.162842e-01  1.200000e+00
     vertex -6.407285e-02 -4.150839e-01  3.787145e-01
     vertex -4.400753e-02 -4.176881e-01  3.899961e-01
   endloop
 endfacet
 facet normal -1.736676e-01 -9.848043e-01  3.218305e-04
   outer loop
     vertex -5.574472e-02 -4.162842e-01  1.200000e+00
     vertex -8.154514e-02 -4.120077e-01  3.634051e-01
     vertex -6.407285e-02 -4.150839e-01  3.787145e-01
   endloop
 endfacet
 facet normal -1.852887e-01 -9.826839e-01  6.910608e-04
   outer loop
     vertex -5.574472e-02 -4.162842e-01  1.200000e+00
     vertex -9.967721e-02 -4.080006e-01  1.200000e+00
     vertex -8.154514e-02 -4.120077e-01  3.634051e-01
   endloop
 endfacet
 facet normal -2.223467e-02 -9.997526e-01  5.452824e-04
   outer loop
     vertex -1.084425e-17 -4.200000e-01  1.761241e-01
     vertex -1.871073e-02 -4.195830e-01  1.776915e-01
     vertex -6.780101e-03 -4.199453e-01  0.000000e+00
   endloop
 endfacet
 facet normal  2.726045e-02 -9.996274e-01 -1.360050e-03
   outer loop
     vertex  2.277360e-02 -4.193821e-01  1.784543e-01
     vertex -1.084425e-17 -4.200000e-01  1.761241e-01
     vertex -6.780101e-03 -4.199453e-01  0.000000e+00
   endloop
 endfacet
 facet normal  3.674577e-02 -9.993203e-01 -2.931878e-03
   outer loop
     vertex  3.760351e-02 -4.183133e-01  0.000000e+00
     vertex  2.277360e-02 -4.193821e-01  1.784543e-01
     vertex -6.780101e-03 -4.199453e-01  0.000000e+00
   endloop
 endfacet
 facet normal -7.978609e-02 -9.968119e-01  5.524204e-04
   outer loop
     vertex -1.118062e-02 -4.198512e-01  1.200000e+00
     vertex -5.574472e-02 -4.162842e-01  1.200000e+00
     vertex -2.225021e-02 -4.194102e-01  3.968621e-01
   endloop
 endfacet
 facet normal  2.516248e-02 -9.996832e-01  5.479435e-04
   outer loop
     vertex -1.118062e-02 -4.198512e-01  1.200000e+00
     vertex  3.518706e-04 -4.199999e-01  3.991236e-01
     vertex  2.073448e-02 -4.194879e-01  3.971624e-01
   endloop
 endfacet
 facet normal -2.605966e-02 -9.996604e-01 -1.896513e-04
   outer loop
     vertex -1.118062e-02 -4.198512e-01  1.200000e+00
     vertex -2.225021e-02 -4.194102e-01  3.968621e-01
     vertex  3.518706e-04 -4.199999e-01  3.991236e-01
   endloop
 endfacet
 facet normal  8.005372e-02 -9.967903e-01  6.822530e-04
   outer loop
     vertex  4.462868e-02 -4.176222e-01  1.853670e-01
     vertex  2.277360e-02 -4.193821e-01  1.784543e-01
     vertex  3.760351e-02 -4.183133e-01  0.000000e+00
   endloop
 endfacet
 facet normal  1.309266e-01 -9.913912e-01 -1.265893e-03
   outer loop
     vertex  6.473010e-02 -4.149819e-01  1.966723e-01
     vertex  4.462868e-02 -4.176222e-01  1.853670e-01
     vertex  3.760351e-02 -4.183133e-01  0.000000e+00
   endloop
 endfacet
 facet normal  1.420674e-01 -9.898530e-01 -2.828563e-03
   outer loop
     vertex  8.156662e-02 -4.120035e-01  0.000000e+00
     vertex  6.473010e-02 -4.149819e-01  1.966723e-01
     vertex  3.760351e-02 -4.183133e-01  0.000000e+00
   endloop
 endfacet
 facet normal  1.730562e-01 -9.849119e-01 -1.008696e-04
   outer loop
     vertex  8.053995e-02 -4.122054e-01  2.102604e-01
     vertex  6.473010e-02 -4.149819e-01  1.966723e-01
     vertex  8.156662e-02 -4.120035e-01  0.000000e+00
   endloop
 endfacet
 facet normal  2.662052e-02 -9.996454e-01  6.059216e-04
   outer loop
     vertex  3.351016e-02 -4.186610e-01  1.200000e+00
     vertex -1.118062e-02 -4.198512e-01  1.200000e+00
     vertex  2.073448e-02 -4.194879e-01  3.971624e-01
   endloop
 endfacet
 facet normal  1.186967e-01 -9.929305e-01  2.674657e-04
   outer loop
     vertex  3.351016e-02 -4.186610e-01  1.200000e+00
     vertex  4.052284e-02 -4.180405e-01  3.914354e-01
     vertex  5.904649e-02 -4.158287e-01  3.820691e-01
   endloop
 endfacet
 facet normal  7.290831e-02 -9.973386e-01 -1.330392e-04
   outer loop
     vertex  3.351016e-02 -4.186610e-01  1.200000e+00
     vertex  2.073448e-02 -4.194879e-01  3.971624e-01
     vertex  4.052284e-02 -4.180405e-01  3.914354e-01
   endloop
 endfacet
 facet normal  2.071648e-01 -9.783061e-01  7.202091e-05
   outer loop
     vertex  9.352977e-02 -4.094535e-01  2.265780e-01
     vertex  8.053995e-02 -4.122054e-01  2.102604e-01
     vertex  8.156662e-02 -4.120035e-01  0.000000e+00
   endloop
 endfacet
 facet normal  2.370576e-01 -9.714943e-01 -1.582961e-03
   outer loop
     vertex  1.031932e-01 -4.071255e-01  2.449706e-01
     vertex  9.352977e-02 -4.094535e-01  2.265780e-01
     vertex  8.156662e-02 -4.120035e-01  0.000000e+00
   endloop
 endfacet
 facet normal  2.570066e-01 -9.664087e-01 -1.346408e-03
   outer loop
     vertex  1.246176e-01 -4.010866e-01  0.000000e+00
     vertex  1.092205e-01 -4.055501e-01  2.647186e-01
     vertex  1.031932e-01 -4.071255e-01  2.449706e-01
   endloop
 endfacet
 facet normal  2.458005e-01 -9.693175e-01 -2.398156e-03
   outer loop
     vertex  1.246176e-01 -4.010866e-01  0.000000e+00
     vertex  1.031932e-01 -4.071255e-01  2.449706e-01
     vertex  8.156662e-02 -4.120035e-01  0.000000e+00
   endloop
 endfacet
 facet normal  2.681674e-01 -9.633721e-01 -6.460473e-04
   outer loop
     vertex  1.114821e-01 -4.049342e-01  2.851297e-01
     vertex  1.092205e-01 -4.055501e-01  2.647186e-01
     vertex  1.246176e-01 -4.010866e-01  0.000000e+00
   endloop
 endfacet
 facet normal  2.017629e-01 -9.794344e-01 -1.147673e-05
   outer loop
     vertex  7.782126e-02 -4.127273e-01  1.200000e+00
     vertex  7.728315e-02 -4.128284e-01  3.677598e-01
     vertex  9.218074e-02 -4.097593e-01  3.500168e-01
   endloop
 endfacet
 facet normal  1.623483e-01 -9.867335e-01  1.489464e-05
   outer loop
     vertex  7.782126e-02 -4.127273e-01  1.200000e+00
     vertex  5.904649e-02 -4.158287e-01  3.820691e-01
     vertex  7.728315e-02 -4.128284e-01  3.677598e-01
   endloop
 endfacet
 facet normal  1.327255e-01 -9.911526e-01  7.116113e-04
   outer loop
     vertex  7.782126e-02 -4.127273e-01  1.200000e+00
     vertex  3.351016e-02 -4.186610e-01  1.200000e+00
     vertex  5.904649e-02 -4.158287e-01  3.820691e-01
   endloop
 endfacet
 facet normal  2.647249e-01 -9.643240e-01  1.426616e-04
   outer loop
     vertex  1.212506e-01 -4.021173e-01  1.200000e+00
     vertex  1.095669e-01 -4.054566e-01  3.078184e-01
     vertex  1.114821e-01 -4.049342e-01  2.851297e-01
   endloop
 endfacet
 facet normal  2.540747e-01 -9.671846e-01  2.928406e-04
   outer loop
     vertex  1.212506e-01 -4.021173e-01  1.200000e+00
     vertex  1.030711e-01 -4.071564e-01  3.297295e-01
     vertex  1.095669e-01 -4.054566e-01  3.078184e-01
   endloop
 endfacet
 facet normal  2.337775e-01 -9.722898e-01  7.463986e-04
   outer loop
     vertex  1.212506e-01 -4.021173e-01  1.200000e+00
     vertex  9.218074e-02 -4.097593e-01  3.500168e-01
     vertex  1.030711e-01 -4.071564e-01  3.297295e-01
   endloop
 endfacet
 facet normal  2.373267e-01 -9.714297e-01  6.172827e-04
   outer loop
     vertex  1.212506e-01 -4.021173e-01  1.200000e+00
     vertex  7.782126e-02 -4.127273e-01  1.200000e+00
     vertex  9.218074e-02 -4.097593e-01  3.500168e-01
   endloop
 endfacet
 facet normal  3.467859e-01 -9.379443e-01 -1.318975e-04
   outer loop
     vertex  1.633062e-01 -3.869510e-01  1.200000e+00
     vertex  1.246176e-01 -4.010866e-01  0.000000e+00
     vertex  1.662751e-01 -3.856846e-01  0.000000e+00
   endloop
 endfacet
 facet normal  3.071462e-01 -9.516614e-01  1.307687e-03
   outer loop
     vertex  1.633062e-01 -3.869510e-01  1.200000e+00
     vertex  1.114821e-01 -4.049342e-01  2.851297e-01
     vertex  1.246176e-01 -4.010866e-01  0.000000e+00
   endloop
 endfacet
 facet normal  3.392388e-01 -9.407000e-01 -7.257024e-04
   outer loop
     vertex  1.633062e-01 -3.869510e-01  1.200000e+00
     vertex  1.212506e-01 -4.021173e-01  1.200000e+00
     vertex  1.114821e-01 -4.049342e-01  2.851297e-01
   endloop
 endfacet
 facet normal  4.373073e-01 -8.993121e-01  1.328360e-04
   outer loop
     vertex  2.035114e-01 -3.674005e-01  1.200000e+00
     vertex  1.633062e-01 -3.869510e-01  1.200000e+00
     vertex  1.662751e-01 -3.856846e-01  0.000000e+00
   endloop
 endfacet
 facet normal  4.438928e-01 -8.960799e-01 -1.207601e-04
   outer loop
     vertex  2.035114e-01 -3.674005e-01  1.200000e+00
     vertex  1.662751e-01 -3.856846e-01  0.000000e+00
     vertex  2.060733e-01 -3.659697e-01  0.000000e+00
   endloop
 endfacet
 facet normal  5.304209e-01 -8.477344e-01  1.216132e-04
   outer loop
     vertex  2.414107e-01 -3.436872e-01  1.200000e+00
     vertex  2.035114e-01 -3.674005e-01  1.200000e+00
     vertex  2.060733e-01 -3.659697e-01  0.000000e+00
   endloop
 endfacet
 facet normal  5.360358e-01 -8.441952e-01 -1.094520e-04
   outer loop
     vertex  2.414107e-01 -3.436872e-01  1.200000e+00
     vertex  2.060733e-01 -3.659697e-01  0.000000e+00
     vertex  2.435670e-01 -3.421624e-01  0.000000e+00
   endloop
 endfacet
 facet normal  6.175246e-01 -7.865516e-01  1.102198e-04
   outer loop
     vertex  2.765748e-01 -3.160797e-01  1.200000e+00
     vertex  2.414107e-01 -3.436872e-01  1.200000e+00
     vertex  2.435670e-01 -3.421624e-01  0.000000e+00
   endloop
 endfacet
 facet normal  6.221847e-01 -7.828705e-01 -9.797319e-05
   outer loop
     vertex  2.765748e-01 -3.160797e-01  1.200000e+00
     vertex  2.435670e-01 -3.421624e-01  0.000000e+00
     vertex  2.783371e-01 -3.145289e-01  0.000000e+00
   endloop
 endfacet
 facet normal  6.976315e-01 -7.164567e-01  9.865570e-05
   outer loop
     vertex  3.086051e-01 -2.848910e-01  1.200000e+00
     vertex  2.765748e-01 -3.160797e-01  1.200000e+00
     vertex  2.783371e-01 -3.145289e-01  0.000000e+00
   endloop
 endfacet
 facet normal  7.013761e-01 -7.127914e-01 -8.632376e-05
   outer loop
     vertex  3.086051e-01 -2.848910e-01  1.200000e+00
     vertex  2.783371e-01 -3.145289e-01  0.000000e+00
     vertex  3.099947e-01 -2.833783e-01  0.000000e+00
   endloop
 endfacet
 facet normal  7.698340e-01 -6.382442e-01  8.692095e-05
   outer loop
     vertex  3.371389e-01 -2.504743e-01  1.200000e+00
     vertex  3.086051e-01 -2.848910e-01  1.200000e+00
     vertex  3.099947e-01 -2.833783e-01  0.000000e+00
   endloop
 endfacet
 facet normal  7.727245e-01 -6.347416e-01 -7.450369e-05
   outer loop
     vertex  3.371389e-01 -2.504743e-01  1.200000e+00
     vertex  3.099947e-01 -2.833783e-01  0.000000e+00
     vertex  3.381859e-01 -2.490588e-01  0.000000e+00
   endloop
 endfacet
 facet normal  8.333139e-01 -5.528001e-01  7.501555e-05
   outer loop
     vertex  3.618527e-01 -2.132196e-01  1.200000e+00
     vertex  3.371389e-01 -2.504743e-01  1.200000e+00
     vertex  3.381859e-01 -2.490588e-01  0.000000e+00
   endloop
 endfacet
 facet normal  8.354320e-01 -5.495939e-01 -6.251297e-05
   outer loop
     vertex  3.618527e-01 -2.132196e-01  1.200000e+00
     vertex  3.381859e-01 -2.490588e-01  0.000000e+00
     vertex  3.625953e-01 -2.119543e-01  0.000000e+00
   endloop
 endfacet
 facet normal  8.873521e-01 -4.610925e-01  6.293952e-05
   outer loop
     vertex  3.824666e-01 -1.735491e-01  1.200000e+00
     vertex  3.618527e-01 -2.132196e-01  1.200000e+00
     vertex  3.625953e-01 -2.119543e-01  0.000000e+00
   endloop
 endfacet
 facet normal  8.887973e-01 -4.583004e-01 -5.035162e-05
   outer loop
     vertex  3.824666e-01 -1.735491e-01  1.200000e+00
     vertex  3.625953e-01 -2.119543e-01  0.000000e+00
     vertex  3.829501e-01 -1.724796e-01  0.000000e+00
   endloop
 endfacet
 facet normal  9.313362e-01 -3.641606e-01  5.069285e-05
   outer loop
     vertex  3.987470e-01 -1.319122e-01  1.200000e+00
     vertex  3.824666e-01 -1.735491e-01  1.200000e+00
     vertex  3.829501e-01 -1.724796e-01  0.000000e+00
   endloop
 endfacet
 facet normal  9.322239e-01 -3.618821e-01 -3.801965e-05
   outer loop
     vertex  3.987470e-01 -1.319122e-01  1.200000e+00
     vertex  3.829501e-01 -1.724796e-01  0.000000e+00
     vertex  3.990226e-01 -1.310762e-01  0.000000e+00
   endloop
 endfacet
 facet normal  9.647679e-01 -2.631026e-01  3.827556e-05
   outer loop
     vertex  4.105094e-01 -8.878070e-02  1.200000e+00
     vertex  3.987470e-01 -1.319122e-01  1.200000e+00
     vertex  3.990226e-01 -1.310762e-01  0.000000e+00
   endloop
 endfacet
 facet normal  9.652259e-01 -2.614171e-01 -2.551704e-05
   outer loop
     vertex  4.105094e-01 -8.878070e-02  1.200000e+00
     vertex  3.990226e-01 -1.310762e-01  0.000000e+00
     vertex  4.106331e-01 -8.820700e-02  0.000000e+00
   endloop
 endfacet
 facet normal  9.872684e-01 -1.590635e-01  2.568765e-05
   outer loop
     vertex  4.176206e-01 -4.464326e-02  1.200000e+00
     vertex  4.105094e-01 -8.878070e-02  1.200000e+00
     vertex  4.106331e-01 -8.820700e-02  0.000000e+00
   endloop
 endfacet
 facet normal  9.874345e-01 -1.580288e-01 -1.284383e-05
   outer loop
     vertex  4.176206e-01 -4.464326e-02  1.200000e+00
     vertex  4.106331e-01 -8.820700e-02  0.000000e+00
     vertex  4.176517e-01 -4.435148e-02  0.000000e+00
   endloop
 endfacet
 facet normal  9.986012e-01 -5.287334e-02  0.000000e+00
   outer loop
     vertex  4.200000e-01 -1.028703e-16  1.200000e+00
     vertex  4.176517e-01 -4.435148e-02  0.000000e+00
     vertex  4.200000e-01 -1.028703e-16  0.000000e+00
   endloop
 endfacet
 facet normal  9.985827e-01 -5.322217e-02  1.292913e-05
   outer loop
     vertex  4.200000e-01 -1.028703e-16  1.200000e+00
     vertex  4.176206e-01 -4.464326e-02  1.200000e+00
     vertex  4.176517e-01 -4.435148e-02  0.000000e+00
   endloop
 endfacet
 facet normal  1.377979e-01  9.904455e-01  5.433850e-03
   outer loop
     vertex  4.787363e-02  4.172626e-01  6.782347e-03
     vertex  7.008483e-02  4.141112e-01  1.794250e-02
     vertex  6.619210e-02  4.147513e-01  0.000000e+00
   endloop
 endfacet
 facet normal  2.648383e-01  9.642927e-01  5.208851e-04
   outer loop
     vertex  1.054414e-01  4.065490e-01  5.029010e-02
     vertex  1.176411e-01  4.031880e-01  6.962603e-02
     vertex  1.076310e-01  4.059748e-01  0.000000e+00
   endloop
 endfacet
 facet normal -2.606747e-01  9.654262e-01  9.602144e-04
   outer loop
     vertex -1.169368e-01  4.033928e-01  6.828198e-02
     vertex -1.031382e-01  4.071394e-01  4.733947e-02
     vertex -1.116048e-01  4.049004e-01  0.000000e+00
   endloop
 endfacet
 facet normal -1.763162e-01  9.843248e-01  4.150061e-03
   outer loop
     vertex -8.554433e-02  4.111960e-01  2.925852e-02
     vertex -6.486931e-02  4.149602e-01  1.483946e-02
     vertex -6.822382e-02  4.144219e-01  0.000000e+00
   endloop
 endfacet
 facet normal  0.000000e+00  0.000000e+00 -1.000000e+00
   outer loop
     vertex -1.915652e-03  3.007488e-01  0.000000e+00
     vertex -3.299695e-01  2.598463e-01  0.000000e+00
     vertex -3.006852e-01  2.932379e-01  0.000000e+00
   endloop
 endfacet
 facet normal  0.000000e+00  0.000000e+00 -1.000000e+00
   outer loop
     vertex -1.915652e-03  3.007488e-01  0.000000e+00
     vertex -3.555641e-01  2.235491e-01  0.000000e+00
     vertex -3.299695e-01  2.598463e-01  0.000000e+00
   endloop
 endfacet
 facet normal  0.000000e+00  0.000000e+00 -1.000000e+00
   outer loop
     vertex -2.998947e-03  3.018354e-01  0.000000e+00
     vertex -2.680384e-01  3.233503e-01  0.000000e+00
     vertex -2.323944e-01  3.498469e-01  0.000000e+00
   endloop
 endfacet
 facet normal -0.000000e+00  0.000000e+00 -1.000000e+00
   outer loop
     vertex -2.998947e-03  3.018354e-01  0.000000e+00
     vertex -3.006852e-01  2.932379e-01  0.000000e+00
     vertex -2.680384e-01  3.233503e-01  0.000000e+00
   endloop
 endfacet
 facet normal  0.000000e+00 -0.000000e+00 -1.000000e+00
   outer loop
     vertex -2.998947e-03  3.018354e-01  0.000000e+00
     vertex -1.915652e-03  3.007488e-01  0.000000e+00
     vertex -3.006852e-01  2.932379e-01  0.000000e+00
   endloop
 endfacet
 facet normal  0.000000e+00  0.000000e+00 -1.000000e+00
   outer loop
     vertex -1.142449e-03  3.002663e-01  0.000000e+00
     vertex -3.771825e-01  1.847521e-01  0.000000e+00
     vertex -3.555641e-01  2.235491e-01  0.000000e+00
   endloop
 endfacet
 facet normal  0.000000e+00  0.000000e+00 -1.000000e+00
   outer loop
     vertex -1.142449e-03  3.002663e-01  0.000000e+00
     vertex -3.945832e-01  1.438891e-01  0.000000e+00
     vertex -3.771825e-01  1.847521e-01  0.000000e+00
   endloop
 endfacet
 facet normal  0.000000e+00  0.000000e+00 -1.000000e+00
   outer loop
     vertex -1.142449e-03  3.002663e-01  0.000000e+00
     vertex -4.075716e-01  1.014171e-01  0.000000e+00
     vertex -3.945832e-01  1.438891e-01  0.000000e+00
   endloop
 endfacet
 facet normal  0.000000e+00  0.000000e+00 -1.000000e+00
   outer loop
     vertex -1.142449e-03  3.002663e-01  0.000000e+00
     vertex -4.160023e-01  5.781099e-02  0.000000e+00
     vertex -4.075716e-01  1.014171e-01  0.000000e+00
   endloop
 endfacet
 facet normal  0.000000e+00  0.000000e+00 -1.000000e+00
   outer loop
     vertex -1.142449e-03  3.002663e-01  0.000000e+00
     vertex -4.197811e-01  1.355843e-02  0.000000e+00
     vertex -4.160023e-01  5.781099e-02  0.000000e+00
   endloop
 endfacet
 facet normal -0.000000e+00  0.000000e+00 -1.000000e+00
   outer loop
     vertex -1.142449e-03  3.002663e-01  0.000000e+00
     vertex -3.555641e-01  2.235491e-01  0.000000e+00
     vertex -1.915652e-03  3.007488e-01  0.000000e+00
   endloop
 endfacet
 facet normal  0.000000e+00  0.000000e+00 -1.000000e+00
   outer loop
     vertex -5.717529e-04  3.000667e-01  0.000000e+00
     vertex -4.188658e-01 -3.084574e-02  0.000000e+00
     vertex -4.197811e-01  1.355843e-02  0.000000e+00
   endloop
 endfacet
 facet normal  0.000000e+00  0.000000e+00 -1.000000e+00
   outer loop
     vertex -5.717529e-04  3.000667e-01  0.000000e+00
     vertex -4.132666e-01 -7.490498e-02  0.000000e+00
     vertex -4.188658e-01 -3.084574e-02  0.000000e+00
   endloop
 endfacet
 facet normal  0.000000e+00  0.000000e+00 -1.000000e+00
   outer loop
     vertex -5.717529e-04  3.000667e-01  0.000000e+00
     vertex -4.030460e-01 -1.181266e-01  0.000000e+00
     vertex -4.132666e-01 -7.490498e-02  0.000000e+00
   endloop
 endfacet
 facet normal  0.000000e+00  0.000000e+00 -1.000000e+00
   outer loop
     vertex -5.717529e-04  3.000667e-01  0.000000e+00
     vertex -3.883185e-01 -1.600273e-01  0.000000e+00
     vertex -4.030460e-01 -1.181266e-01  0.000000e+00
   endloop
 endfacet
 facet normal  0.000000e+00  0.000000e+00 -1.000000e+00
   outer loop
     vertex -5.717529e-04  3.000667e-01  0.000000e+00
     vertex -3.692487e-01 -2.001385e-01  0.000000e+00
     vertex -3.883185e-01 -1.600273e-01  0.000000e+00
   endloop
 endfacet
 facet normal  0.000000e+00  0.000000e+00 -1.000000e+00
   outer loop
     vertex -5.717529e-04  3.000667e-01  0.000000e+00
     vertex -3.460497e-01 -2.380117e-01  0.000000e+00
     vertex -3.692487e-01 -2.001385e-01  0.000000e+00
   endloop
 endfacet
 facet normal  0.000000e+00  0.000000e+00 -1.000000e+00
   outer loop
     vertex -5.717529e-04  3.000667e-01  0.000000e+00
     vertex -3.189812e-01 -2.732234e-01  0.000000e+00
     vertex -3.460497e-01 -2.380117e-01  0.000000e+00
   endloop
 endfacet
 facet normal  0.000000e+00  0.000000e+00 -1.000000e+00
   outer loop
     vertex -5.717529e-04  3.000667e-01  0.000000e+00
     vertex -2.883457e-01 -3.053797e-01  0.000000e+00
     vertex -3.189812e-01 -2.732234e-01  0.000000e+00
   endloop
 endfacet
 facet normal  0.000000e+00  0.000000e+00 -1.000000e+00
   outer loop
     vertex -5.717529e-04  3.000667e-01  0.000000e+00
     vertex -2.544857e-01 -3.341212e-01  0.000000e+00
     vertex -2.883457e-01 -3.053797e-01  0.000000e+00
   endloop
 endfacet
 facet normal -0.000000e+00  0.000000e+00 -1.000000e+00
   outer loop
     vertex -5.717529e-04  3.000667e-01  0.000000e+00
     vertex -4.197811e-01  1.355843e-02  0.000000e+00
     vertex -1.142449e-03  3.002663e-01  0.000000e+00
   endloop
 endfacet
 facet normal -0.000000e+00  0.000000e+00 -1.000000e+00
   outer loop
     vertex -6.144303e-18  3.000000e-01  0.000000e+00
     vertex -2.544857e-01 -3.341212e-01  0.000000e+00
     vertex -5.717529e-04  3.000667e-01  0.000000e+00
   endloop
 endfacet
 facet normal  0.000000e+00  0.000000e+00 -1.000000e+00
   outer loop
     vertex -6.144303e-18  3.000000e-01  0.000000e+00
     vertex -2.177801e-01 -3.591265e-01  0.000000e+00
     vertex -2.544857e-01 -3.341212e-01  0.000000e+00
   endloop
 endfacet
 facet normal  0.000000e+00  0.000000e+00 -1.000000e+00
   outer loop
     vertex -6.144303e-18  3.000000e-01  0.000000e+00
     vertex -1.786391e-01 -3.801159e-01  0.000000e+00
     vertex -2.177801e-01 -3.591265e-01  0.000000e+00
   endloop
 endfacet
 facet normal  0.000000e+00  0.000000e+00 -1.000000e+00
   outer loop
     vertex -6.144303e-18  3.000000e-01  0.000000e+00
     vertex -1.375005e-01 -3.968546e-01  0.000000e+00
     vertex -1.786391e-01 -3.801159e-01  0.000000e+00
   endloop
 endfacet
 facet normal  0.000000e+00  0.000000e+00 -1.000000e+00
   outer loop
     vertex -6.144303e-18  3.000000e-01  0.000000e+00
     vertex -9.482440e-02 -4.091556e-01  0.000000e+00
     vertex -1.375005e-01 -3.968546e-01  0.000000e+00
   endloop
 endfacet
 facet normal  0.000000e+00  0.000000e+00 -1.000000e+00
   outer loop
     vertex -6.144303e-18  3.000000e-01  0.000000e+00
     vertex -5.108789e-02 -4.168813e-01  0.000000e+00
     vertex -9.482440e-02 -4.091556e-01  0.000000e+00
   endloop
 endfacet
 facet normal  0.000000e+00  0.000000e+00 -1.000000e+00
   outer loop
     vertex -6.144303e-18  3.000000e-01  0.000000e+00
     vertex -6.780101e-03 -4.199453e-01  0.000000e+00
     vertex -5.108789e-02 -4.168813e-01  0.000000e+00
   endloop
 endfacet
 facet normal  0.000000e+00 -0.000000e+00 -1.000000e+00
   outer loop
     vertex -6.144303e-18  3.000000e-01  0.000000e+00
     vertex  3.760351e-02 -4.183133e-01  0.000000e+00
     vertex -6.780101e-03 -4.199453e-01  0.000000e+00
   endloop
 endfacet
 facet normal  0.000000e+00  0.000000e+00 -1.000000e+00
   outer loop
     vertex -6.144303e-18  3.000000e-01  0.000000e+00
     vertex  8.156662e-02 -4.120035e-01  0.000000e+00
     vertex  3.760351e-02 -4.183133e-01  0.000000e+00
   endloop
 endfacet
 facet normal  0.000000e+00  0.000000e+00 -1.000000e+00
   outer loop
     vertex -6.144303e-18  3.000000e-01  0.000000e+00
     vertex  1.246176e-01 -4.010866e-01  0.000000e+00
     vertex  8.156662e-02 -4.120035e-01  0.000000e+00
   endloop
 endfacet
 facet normal  0.000000e+00  0.000000e+00 -1.000000e+00
   outer loop
     vertex -6.144303e-18  3.000000e-01  0.000000e+00
     vertex  1.662751e-01 -3.856846e-01  0.000000e+00
     vertex  1.246176e-01 -4.010866e-01  0.000000e+00
   endloop
 endfacet
 facet normal  0.000000e+00  0.000000e+00 -1.000000e+00
   outer loop
     vertex -6.144303e-18  3.000000e-01  0.000000e+00
     vertex  2.060733e-01 -3.659697e-01  0.000000e+00
     vertex  1.662751e-01 -3.856846e-01  0.000000e+00
   endloop
 endfacet
 facet normal  0.000000e+00  0.000000e+00 -1.000000e+00
   outer loop
     vertex -6.144303e-18  3.000000e-01  0.000000e+00
     vertex  2.435670e-01 -3.421624e-01  0.000000e+00
     vertex  2.060733e-01 -3.659697e-01  0.000000e+00
   endloop
 endfacet
 facet normal  0.000000e+00  0.000000e+00 -1.000000e+00
   outer loop
     vertex -6.144303e-18  3.000000e-01  0.000000e+00
     vertex  2.783371e-01 -3.145289e-01  0.000000e+00
     vertex  2.435670e-01 -3.421624e-01  0.000000e+00
   endloop
 endfacet
 facet normal  0.000000e+00  0.000000e+00 -1.000000e+00
   outer loop
     vertex -4.967482e-03  3.050368e-01  0.000000e+00
     vertex -2.323944e-01  3.498469e-01  0.000000e+00
     vertex -1.941516e-01  3.724314e-01  0.000000e+00
   endloop
 endfacet
 facet normal -0.000000e+00 -0.000000e+00 -1.000000e+00
   outer loop
     vertex -4.967482e-03  3.050368e-01  0.000000e+00
     vertex -2.998947e-03  3.018354e-01  0.000000e+00
     vertex -2.323944e-01  3.498469e-01  0.000000e+00
   endloop
 endfacet
 facet normal  0.000000e+00  0.000000e+00 -1.000000e+00
   outer loop
     vertex  5.717529e-04  3.000667e-01  0.000000e+00
     vertex  3.099947e-01 -2.833783e-01  0.000000e+00
     vertex  2.783371e-01 -3.145289e-01  0.000000e+00
   endloop
 endfacet
 facet normal  0.000000e+00  0.000000e+00 -1.000000e+00
   outer loop
     vertex  5.717529e-04  3.000667e-01  0.000000e+00
     vertex  3.381859e-01 -2.490588e-01  0.000000e+00
     vertex  3.099947e-01 -2.833783e-01  0.000000e+00
   endloop
 endfacet
 facet normal  0.000000e+00  0.000000e+00 -1.000000e+00
   outer loop
     vertex  5.717529e-04  3.000667e-01  0.000000e+00
     vertex  3.625953e-01 -2.119543e-01  0.000000e+00
     vertex  3.381859e-01 -2.490588e-01  0.000000e+00
   endloop
 endfacet
 facet normal  0.000000e+00  0.000000e+00 -1.000000e+00
   outer loop
     vertex  5.717529e-04  3.000667e-01  0.000000e+00
     vertex  3.829501e-01 -1.724796e-01  0.000000e+00
     vertex  3.625953e-01 -2.119543e-01  0.000000e+00
   endloop
 endfacet
 facet normal  0.000000e+00  0.000000e+00 -1.000000e+00
   outer loop
     vertex  5.717529e-04  3.000667e-01  0.000000e+00
     vertex  3.990226e-01 -1.310762e-01  0.000000e+00
     vertex  3.829501e-01 -1.724796e-01  0.000000e+00
   endloop
 endfacet
 facet normal  0.000000e+00 -0.000000e+00 -1.000000e+00
   outer loop
     vertex  5.717529e-04  3.000667e-01  0.000000e+00
     vertex  2.783371e-01 -3.145289e-01  0.000000e+00
     vertex -6.144303e-18  3.000000e-01  0.000000e+00
   endloop
 endfacet
 facet normal  0.000000e+00  0.000000e+00 -1.000000e+00
   outer loop
     vertex -8.399450e-03  3.144102e-01  0.000000e+00
     vertex -1.537378e-01  3.908512e-01  0.000000e+00
     vertex -1.116048e-01  4.049004e-01  0.000000e+00
   endloop
 endfacet
 facet normal  0.000000e+00  0.000000e+00 -1.000000e+00
   outer loop
     vertex -8.399450e-03  3.144102e-01  0.000000e+00
     vertex -1.941516e-01  3.724314e-01  0.000000e+00
     vertex -1.537378e-01  3.908512e-01  0.000000e+00
   endloop
 endfacet
 facet normal -0.000000e+00 -0.000000e+00 -1.000000e+00
   outer loop
     vertex -8.399450e-03  3.144102e-01  0.000000e+00
     vertex -4.967482e-03  3.050368e-01  0.000000e+00
     vertex -1.941516e-01  3.724314e-01  0.000000e+00
   endloop
 endfacet
 facet normal -0.000000e+00  0.000000e+00 -1.000000e+00
   outer loop
     vertex  4.106331e-01 -8.820700e-02  0.000000e+00
     vertex  3.990226e-01 -1.310762e-01  0.000000e+00
     vertex  5.717529e-04  3.000667e-01  0.000000e+00
   endloop
 endfacet
 facet normal -0.000000e+00 -0.000000e+00 -1.000000e+00
   outer loop
     vertex -1.585451e-02  3.514755e-01  0.000000e+00
     vertex -8.399450e-03  3.144102e-01  0.000000e+00
     vertex -1.116048e-01  4.049004e-01  0.000000e+00
   endloop
 endfacet
 facet normal  0.000000e+00 -0.000000e+00 -1.000000e+00
   outer loop
     vertex -6.822382e-02  4.144219e-01  0.000000e+00
     vertex -1.585451e-02  3.514755e-01  0.000000e+00
     vertex -1.116048e-01  4.049004e-01  0.000000e+00
   endloop
 endfacet
 facet normal -0.000000e+00  0.000000e+00 -1.000000e+00
   outer loop
     vertex  4.176517e-01 -4.435148e-02  0.000000e+00
     vertex  4.106331e-01 -8.820700e-02  0.000000e+00
     vertex  5.717529e-04  3.000667e-01  0.000000e+00
   endloop
 endfacet
 facet normal  0.000000e+00 -0.000000e+00 -1.000000e+00
   outer loop
     vertex -2.407993e-02  4.193091e-01  0.000000e+00
     vertex -1.585451e-02  3.514755e-01  0.000000e+00
     vertex -6.822382e-02  4.144219e-01  0.000000e+00
   endloop
 endfacet
 facet normal  0.000000e+00  0.000000e+00 -1.000000e+00
   outer loop
     vertex  4.200000e-01 -1.028703e-16  0.000000e+00
     vertex  5.717529e-04  3.000667e-01  0.000000e+00
     vertex  1.142449e-03  3.002663e-01  0.000000e+00
   endloop
 endfacet
 facet normal -0.000000e+00  0.000000e+00 -1.000000e+00
   outer loop
     vertex  4.200000e-01 -1.028703e-16  0.000000e+00
     vertex  4.176517e-01 -4.435148e-02  0.000000e+00
     vertex  5.717529e-04  3.000667e-01  0.000000e+00
   endloop
 endfacet
 facet normal -0.000000e+00 -0.000000e+00 -1.000000e+00
   outer loop
     vertex  4.178640e-01  4.230423e-02  0.000000e+00
     vertex  4.200000e-01 -1.028703e-16  0.000000e+00
     vertex  1.142449e-03  3.002663e-01  0.000000e+00
   endloop
 endfacet
 facet normal -0.000000e+00  0.000000e+00 -1.000000e+00
   outer loop
     vertex  6.619210e-02  4.147513e-01  0.000000e+00
     vertex  1.585451e-02  3.514755e-01  0.000000e+00
     vertex  2.407993e-02  4.193091e-01  0.000000e+00
   endloop
 endfacet
 facet normal -0.000000e+00 -0.000000e+00 -1.000000e+00
   outer loop
     vertex  4.114779e-01  8.417817e-02  0.000000e+00
     vertex  4.178640e-01  4.230423e-02  0.000000e+00
     vertex  1.142449e-03  3.002663e-01  0.000000e+00
   endloop
 endfacet
 facet normal -0.000000e+00  0.000000e+00 -1.000000e+00
   outer loop
     vertex  1.076310e-01  4.059748e-01  0.000000e+00
     vertex  1.585451e-02  3.514755e-01  0.000000e+00
     vertex  6.619210e-02  4.147513e-01  0.000000e+00
   endloop
 endfacet
 facet normal  0.000000e+00  0.000000e+00 -1.000000e+00
   outer loop
     vertex  1.076310e-01  4.059748e-01  0.000000e+00
     vertex  8.399450e-03  3.144102e-01  0.000000e+00
     vertex  1.585451e-02  3.514755e-01  0.000000e+00
   endloop
 endfacet
 facet normal -0.000000e+00 -0.000000e+00 -1.000000e+00
   outer loop
     vertex  4.009065e-01  1.251959e-01  0.000000e+00
     vertex  4.114779e-01  8.417817e-02  0.000000e+00
     vertex  1.142449e-03  3.002663e-01  0.000000e+00
   endloop
 endfacet
 facet normal -0.000000e+00  0.000000e+00 -1.000000e+00
   outer loop
     vertex  1.479752e-01  3.930691e-01  0.000000e+00
     vertex  8.399450e-03  3.144102e-01  0.000000e+00
     vertex  1.076310e-01  4.059748e-01  0.000000e+00
   endloop
 endfacet
 facet normal -0.000000e+00 -0.000000e+00 -1.000000e+00
   outer loop
     vertex  3.862573e-01  1.649403e-01  0.000000e+00
     vertex  4.009065e-01  1.251959e-01  0.000000e+00
     vertex  1.142449e-03  3.002663e-01  0.000000e+00
   endloop
 endfacet
 facet normal  0.000000e+00  0.000000e+00 -1.000000e+00
   outer loop
     vertex  1.868143e-01  3.761654e-01  0.000000e+00
     vertex  4.967482e-03  3.050368e-01  0.000000e+00
     vertex  8.399450e-03  3.144102e-01  0.000000e+00
   endloop
 endfacet
 facet normal -0.000000e+00  0.000000e+00 -1.000000e+00
   outer loop
     vertex  1.868143e-01  3.761654e-01  0.000000e+00
     vertex  8.399450e-03  3.144102e-01  0.000000e+00
     vertex  1.479752e-01  3.930691e-01  0.000000e+00
   endloop
 endfacet
 facet normal -0.000000e+00 -0.000000e+00 -1.000000e+00
   outer loop
     vertex  3.676795e-01  2.030069e-01  0.000000e+00
     vertex  3.862573e-01  1.649403e-01  0.000000e+00
     vertex  1.142449e-03  3.002663e-01  0.000000e+00
   endloop
 endfacet
 facet normal  0.000000e+00  0.000000e+00 -1.000000e+00
   outer loop
     vertex  3.676795e-01  2.030069e-01  0.000000e+00
     vertex  1.142449e-03  3.002663e-01  0.000000e+00
     vertex  1.915652e-03  3.007488e-01  0.000000e+00
   endloop
 endfacet
 facet normal -0.000000e+00  0.000000e+00 -1.000000e+00
   outer loop
     vertex  2.237532e-01  3.554356e-01  0.000000e+00
     vertex  4.967482e-03  3.050368e-01  0.000000e+00
     vertex  1.868143e-01  3.761654e-01  0.000000e+00
   endloop
 endfacet
 facet normal  0.000000e+00  0.000000e+00 -1.000000e+00
   outer loop
     vertex  2.237532e-01  3.554356e-01  0.000000e+00
     vertex  2.998947e-03  3.018354e-01  0.000000e+00
     vertex  4.967482e-03  3.050368e-01  0.000000e+00
   endloop
 endfacet
 facet normal -0.000000e+00 -0.000000e+00 -1.000000e+00
   outer loop
     vertex  3.453618e-01  2.390088e-01  0.000000e+00
     vertex  3.676795e-01  2.030069e-01  0.000000e+00
     vertex  1.915652e-03  3.007488e-01  0.000000e+00
   endloop
 endfacet
 facet normal -0.000000e+00  0.000000e+00 -1.000000e+00
   outer loop
     vertex  2.584163e-01  3.310906e-01  0.000000e+00
     vertex  2.998947e-03  3.018354e-01  0.000000e+00
     vertex  2.237532e-01  3.554356e-01  0.000000e+00
   endloop
 endfacet
 facet normal -0.000000e+00 -0.000000e+00 -1.000000e+00
   outer loop
     vertex  3.195314e-01  2.725796e-01  0.000000e+00
     vertex  3.453618e-01  2.390088e-01  0.000000e+00
     vertex  1.915652e-03  3.007488e-01  0.000000e+00
   endloop
 endfacet
 facet normal -0.000000e+00  0.000000e+00 -1.000000e+00
   outer loop
     vertex  2.904510e-01  3.033780e-01  0.000000e+00
     vertex  2.998947e-03  3.018354e-01  0.000000e+00
     vertex  2.584163e-01  3.310906e-01  0.000000e+00
   endloop
 endfacet
 facet normal  0.000000e+00 -0.000000e+00 -1.000000e+00
   outer loop
     vertex  2.904510e-01  3.033780e-01  0.000000e+00
     vertex  3.195314e-01  2.725796e-01  0.000000e+00
     vertex  1.915652e-03  3.007488e-01  0.000000e+00
   endloop
 endfacet
 facet normal  0.000000e+00  0.000000e+00 -1.000000e+00
   outer loop
     vertex  2.904510e-01  3.033780e-01  0.000000e+00
     vertex  1.915652e-03  3.007488e-01  0.000000e+00
     vertex  2.998947e-03  3.018354e-01  0.000000e+00
   endloop
 endfacet
endsolid
